<svg width="80" height="80" viewBox="0 0 80 80" fill="none" xmlns="http://www.w3.org/2000/svg">
<rect width="80" height="80" rx="40" fill="#F5F5F5"/>
<path d="M56.6976 29.3306C56.4051 29.5988 56.0242 29.7499 55.6275 29.755H18.079C16.746 29.755 16.0743 28.2319 16.9959 27.3389L23.1637 21.3924C23.4503 21.1148 23.8323 20.9574 24.2312 20.9524H61.9229C63.2689 20.9524 63.9276 22.4885 62.9904 23.3867L56.6976 29.3306Z" fill="url(#paint0_linear_252_853)"/>
<path d="M56.6976 58.6363C56.4032 58.8997 56.0225 59.0461 55.6275 59.0477H18.079C16.746 59.0477 16.0743 57.5376 16.9959 56.6446L23.1637 50.6824C23.4528 50.4105 23.8344 50.2588 24.2312 50.2581H61.9229C63.2689 50.2581 63.9276 51.7837 62.9904 52.6742L56.6976 58.6363Z" fill="url(#paint1_linear_252_853)"/>
<path d="M56.6976 36.0244C56.4032 35.761 56.0225 35.6146 55.6275 35.613H18.079C16.746 35.613 16.0743 37.1231 16.9959 38.0161L23.1637 43.9783C23.4527 44.2464 23.8329 44.3948 24.2312 44.4026H61.9229C63.2689 44.4026 63.9276 42.877 62.9904 41.9865L56.6976 36.0244Z" fill="url(#paint2_linear_252_853)"/>
<defs>
<linearGradient id="paint0_linear_252_853" x1="16.5715" y1="152.06" x2="64.628" y2="151.617" gradientUnits="userSpaceOnUse">
<stop stop-color="#599DB0"/>
<stop offset="1" stop-color="#47F8C3"/>
</linearGradient>
<linearGradient id="paint1_linear_252_853" x1="16.5715" y1="32.6268" x2="64.3208" y2="32.2597" gradientUnits="userSpaceOnUse">
<stop stop-color="#C44FE2"/>
<stop offset="1" stop-color="#73B0D0"/>
</linearGradient>
<linearGradient id="paint2_linear_252_853" x1="19.2662" y1="40.0078" x2="61.6183" y2="40.0078" gradientUnits="userSpaceOnUse">
<stop stop-color="#778CBF"/>
<stop offset="1" stop-color="#5DCDC9"/>
</linearGradient>
</defs>
</svg>
