<svg width="64" height="64" viewBox="0 0 64 64" fill="none" xmlns="http://www.w3.org/2000/svg">
<path d="M46.9013 0C57.8844 0 64 5.696 64 15.456V48.512C64 58.432 57.8844 64 46.9013 64H17.1022C6.29333 64 0 58.432 0 48.512V15.456C0 5.696 6.29333 0 17.1022 0H46.9013ZM18.0622 43.968C16.9956 43.872 15.9644 44.32 15.3956 45.152C14.8267 45.952 14.8267 47.008 15.3956 47.84C15.9644 48.64 16.9956 49.12 18.0622 48.992H45.9378C47.3564 48.864 48.4267 47.7728 48.4267 46.496C48.4267 45.184 47.3564 44.096 45.9378 43.968H18.0622ZM45.9378 29.3728H18.0622C16.5298 29.3728 15.2889 30.496 15.2889 31.872C15.2889 33.248 16.5298 34.368 18.0622 34.368H45.9378C47.4667 34.368 48.7111 33.248 48.7111 31.872C48.7111 30.496 47.4667 29.3728 45.9378 29.3728ZM28.6898 14.88H18.0622V14.912C16.5298 14.912 15.2889 16.032 15.2889 17.408C15.2889 18.784 16.5298 19.904 18.0622 19.904H28.6898C30.2222 19.904 31.4667 18.784 31.4667 17.3728C31.4667 16 30.2222 14.88 28.6898 14.88Z" fill="#DC5B35"/>
</svg>
