<svg width="64" height="64" viewBox="0 0 64 64" fill="none" xmlns="http://www.w3.org/2000/svg">
<path d="M53.8182 0C51.8893 0 50.0395 0.766232 48.6756 2.13013C47.3117 3.49403 46.5455 5.34388 46.5455 7.27273V8.72727C45.7739 8.72727 45.034 9.03377 44.4884 9.57933C43.9429 10.1249 43.6364 10.8648 43.6364 11.6364V23.2727C43.6364 24.0443 43.9429 24.7842 44.4884 25.3298C45.034 25.8753 45.7739 26.1818 46.5455 26.1818H61.0909C61.8624 26.1818 62.6024 25.8753 63.1479 25.3298C63.6935 24.7842 64 24.0443 64 23.2727V11.6364C64 10.8648 63.6935 10.1249 63.1479 9.57933C62.6024 9.03377 61.8624 8.72727 61.0909 8.72727V7.27273C61.0909 5.34388 60.3247 3.49403 58.9608 2.13013C57.5969 0.766232 55.747 0 53.8182 0ZM53.8182 2.90909C54.9755 2.90909 56.0854 3.36883 56.9037 4.18717C57.7221 5.00551 58.1818 6.11542 58.1818 7.27273V8.72727H49.4545V7.27273C49.4545 6.11542 49.9143 5.00551 50.7326 4.18717C51.551 3.36883 52.6609 2.90909 53.8182 2.90909ZM5.81818 5.81818C4.2751 5.81818 2.79523 6.43117 1.70411 7.52229C0.612985 8.61341 0 10.0933 0 11.6364V64L11.6364 52.3636H52.3636C53.9067 52.3636 55.3866 51.7507 56.4777 50.6595C57.5688 49.5684 58.1818 48.0885 58.1818 46.5455V32H43.6364C40.4073 32 37.8182 29.4109 37.8182 26.1818V5.81818H5.81818ZM11.6364 17.4545H32V23.2727H11.6364V17.4545ZM11.6364 26.1818H32V32H11.6364V26.1818ZM11.6364 34.9091H34.9091V40.7273H11.6364V34.9091Z" fill="#00006E"/>
</svg>
