<svg width="64" height="64" viewBox="0 0 64 64" fill="none" xmlns="http://www.w3.org/2000/svg">
<path d="M45.888 0C56.736 0 64 7.616 64 18.944V45.0912C64 56.384 56.736 64 45.888 64H18.144C7.296 64 0 56.384 0 45.0912V18.944C0 7.616 7.296 0 18.144 0H45.888ZM45.376 22.4C44.288 21.312 42.496 21.312 41.408 22.4L28.192 35.616L22.592 30.016C21.504 28.928 19.712 28.928 18.624 30.016C17.536 31.104 17.536 32.864 18.624 33.984L26.24 41.568C26.784 42.112 27.488 42.368 28.192 42.368C28.928 42.368 29.632 42.112 30.176 41.568L45.376 26.368C46.464 25.28 46.464 23.52 45.376 22.4Z" fill="#E3B501"/>
</svg>
